<svg width="268" height="66" viewBox="0 0 268 66" fill="none" xmlns="http://www.w3.org/2000/svg">
<path d="M31.4242 14.2827C35.1487 14.2827 38.1679 11.2791 38.1679 7.57401C38.1679 3.86889 35.1487 0.865295 31.4242 0.865295C27.6998 0.865295 24.6805 3.86889 24.6805 7.57401C24.6805 11.2791 27.6998 14.2827 31.4242 14.2827Z" fill="#00FF00"/>
<path d="M104.672 50.0723H97.5906V62.4007H98.8299V51.1993H104.672V50.0723Z" fill="#FF5000"/>
<path d="M107.399 53.4717C106.089 53.4717 105.08 54.0002 104.478 55.0747L104.336 53.5951H103.434V65.9235H104.602V61.1153C105.204 62.0665 106.177 62.5245 107.399 62.5245C109.417 62.5245 110.869 61.0803 110.869 58.3858V57.6109C110.869 54.898 109.435 53.4717 107.399 53.4717ZM109.665 58.3853C109.665 60.428 108.656 61.4321 107.133 61.4321C105.646 61.4321 104.601 60.3401 104.601 58.3853V57.4696C104.654 55.5849 105.716 54.5633 107.133 54.5633C108.638 54.5633 109.665 55.5849 109.665 57.6105V58.3853Z" fill="#FF5000"/>
<path d="M116.234 60.9565L113.242 53.5946H111.932L115.597 62.4007L114.233 65.923H115.472L120.253 53.5946H119.013L116.234 60.9565Z" fill="#FF5000"/>
<path d="M122.2 62.4007H123.369V54.6516H127.936V62.4007H129.105V53.5946H122.2V62.4007Z" fill="#FF5000"/>
<path d="M132.115 62.4007H133.283V54.6516H137.85V62.4007H139.019V53.5946H132.115V62.4007Z" fill="#FF5000"/>
<path d="M145.128 53.4717C143.003 53.4717 141.941 54.5283 141.853 55.9725H143.109C143.198 55.1093 143.836 54.5633 145.128 54.5633C146.562 54.5633 147.146 55.1443 147.146 56.413V57.2054H145.128C142.472 57.2054 141.41 58.2619 141.41 59.9704C141.41 61.5555 142.383 62.5241 144.154 62.5241C145.482 62.5241 146.615 61.8547 147.235 60.7452L147.411 62.4007H148.314V56.413C148.314 54.5633 147.217 53.4717 145.128 53.4717ZM147.146 58.6675C147.146 60.1638 145.871 61.4325 144.242 61.4325C143.18 61.4325 142.613 60.8686 142.613 59.9708C142.613 58.9492 143.304 58.2624 145.127 58.2624H147.145V58.6675H147.146Z" fill="#FF5000"/>
<path d="M159.202 50.0723L154.599 62.4007H155.874L157.184 58.8254H162.584L163.911 62.4007H165.222L160.619 50.0723H159.202ZM162.177 57.6984H157.609L158.866 54.299L159.893 51.4815L160.919 54.299L162.177 57.6984Z" fill="#FF5000"/>
<path d="M170.587 53.6476C169.241 53.6476 168.197 54.1761 167.577 55.1977C167.719 53.5067 168.126 52.5381 169.011 51.9566C170.144 51.2352 171.773 51.6753 173.543 51.023V49.9489C171.277 50.6533 169.949 50.1603 168.48 51.023C166.851 51.9921 166.462 54.1406 166.462 56.5535V57.6805C166.462 61.027 167.967 62.5237 170.375 62.5237C172.676 62.5237 174.252 60.9565 174.252 58.4728V57.698C174.252 55.1797 172.711 53.6476 170.587 53.6476ZM173.048 58.4732C173.048 60.3755 171.986 61.4325 170.374 61.4325C168.763 61.4325 167.666 60.3405 167.666 58.4732V57.5576C167.719 55.7437 168.763 54.7396 170.374 54.7396C171.967 54.7396 173.048 55.8141 173.048 57.6989V58.4732Z" fill="#FF5000"/>
<path d="M180.005 54.5633C181.262 54.5633 181.864 55.1622 182.218 55.9725H183.458C183.104 54.5983 181.971 53.4717 180.005 53.4717C177.757 53.4717 176.199 55.0214 176.199 57.6109V58.3858C176.199 60.992 177.739 62.5245 180.005 62.5245C181.971 62.5245 183.104 61.3975 183.458 59.8479H182.218C181.864 60.8336 181.262 61.433 180.005 61.433C178.518 61.433 177.403 60.323 177.403 58.3862V57.6114C177.403 55.6549 178.501 54.5633 180.005 54.5633Z" fill="#FF5000"/>
<path d="M189.035 53.4717C186.698 53.4717 185.139 55.0214 185.139 57.6109V58.3858C185.139 60.992 186.68 62.5245 189.035 62.5245C191.372 62.5245 192.929 60.9745 192.929 58.3858V57.6109C192.929 55.0034 191.389 53.4717 189.035 53.4717ZM191.725 58.3853C191.725 60.3401 190.628 61.4321 189.035 61.4321C187.459 61.4321 186.344 60.3222 186.344 58.3853V57.6105C186.344 55.6549 187.441 54.5633 189.035 54.5633C190.61 54.5633 191.725 55.6728 191.725 57.6105V58.3853Z" fill="#FF5000"/>
<path d="M195.851 57.8214C195.851 60.7627 195.178 61.4321 194.346 61.4321H194.081V62.5237H194.346C195.975 62.5237 197.02 61.4846 197.02 57.8214V54.6512H200.702V62.4007H201.87V53.5946H195.851V57.8214H195.851Z" fill="#FF5000"/>
<path d="M211.767 53.4717C209.625 53.4717 208.121 54.9159 208.032 57.3813H206.049V53.5951H204.881V62.4011H206.049V58.4387H208.032C208.05 61.0453 209.572 62.5245 211.767 62.5245C213.963 62.5245 215.503 60.9924 215.503 58.3858V57.6109C215.503 54.9864 213.98 53.4717 211.767 53.4717ZM214.299 58.3853C214.299 60.3755 213.237 61.4321 211.767 61.4321C210.315 61.4321 209.235 60.3576 209.235 58.3853V57.6105C209.235 55.6203 210.297 54.5633 211.767 54.5633C213.219 54.5633 214.299 55.6378 214.299 57.6105V58.3853Z" fill="#FF5000"/>
<path d="M216.565 54.6516H219.522V62.4007H220.69V54.6516H223.647V53.5946H216.565V54.6516Z" fill="#FF5000"/>
<path d="M234.181 55.1093H231.349V51.1993H237.546V50.0723H230.11V62.4007H234.182C237.032 62.4007 238.43 61.0095 238.43 58.755C238.43 56.536 236.996 55.1093 234.181 55.1093ZM234.181 61.2737H231.349V56.2367H234.181C236.182 56.2367 237.156 57.1879 237.156 58.7554C237.156 60.3401 236.217 61.2737 234.181 61.2737Z" fill="#FF5000"/>
<path d="M243.919 53.4717C241.794 53.4717 240.732 54.5283 240.643 55.9725H241.9C241.989 55.1093 242.626 54.5633 243.918 54.5633C245.352 54.5633 245.937 55.1443 245.937 56.413V57.2054H243.918C241.263 57.2054 240.2 58.2619 240.2 59.9704C240.2 61.5555 241.175 62.5241 242.945 62.5241C244.272 62.5241 245.405 61.8547 246.025 60.7452L246.202 62.4007H247.105V56.413C247.105 54.5633 246.008 53.4717 243.919 53.4717ZM245.937 58.6675C245.937 60.1638 244.662 61.4325 243.034 61.4325C241.971 61.4325 241.405 60.8686 241.405 59.9708C241.405 58.9492 242.095 58.2624 243.919 58.2624H245.937V58.6675Z" fill="#FF5000"/>
<path d="M256.117 57.3808H251.196V53.5946H250.027V62.4007H251.196V58.4382H256.117V62.4007H257.286V53.5946H256.117V57.3808Z" fill="#FF5000"/>
<path d="M264.102 57.8393L267.023 53.5946H265.571L263.04 57.2933H261.464V53.5946H260.295V62.4007H261.464V58.3499H263.04L265.926 62.4007H267.377L264.102 57.8393Z" fill="#FF5000"/>
<path d="M125.328 36.3594H120.693V15.3171H125.328V23.6587H136.157V15.3171H140.792V36.3594H136.157V28.0178H125.328V36.3594ZM175.015 28.0447H175.027V23.6703H175.015V19.6745H185.881V23.6703H185.87V28.0447H185.881V36.4153H190.532V15.2996H186.046H185.881H175.015H174.489H170.364V36.4153H175.015V28.0447H175.015ZM267.154 15.1767H246.932V19.5537H254.716V36.3039H259.37V19.5537H267.154V15.1767ZM40.365 19.5686H48.1493V36.3188H52.8027V19.5686H60.587V15.1916H40.365V19.5686ZM194.544 25.8334C194.544 19.6519 199.616 14.7319 206.041 14.7319C212.339 14.7319 217.581 19.6519 217.581 25.8334C217.581 31.973 212.424 36.893 206.041 36.893C199.616 36.8926 194.544 31.9726 194.544 25.8334ZM199.236 25.7685C199.236 29.5166 202.11 32.4319 206.041 32.4319C209.93 32.4319 212.847 29.5166 212.847 25.7685C212.847 21.9785 209.845 19.0632 206.041 19.0632C202.11 19.0632 199.236 21.9785 199.236 25.7685ZM109.806 15.2172H114.468V36.3825H109.806V32.7568H109.001C107.517 35.413 104.763 36.9306 101.584 36.9306C96.2441 36.9306 91.54 32.1241 91.54 25.8423C91.54 19.5605 96.3715 14.7118 101.584 14.7118C104.763 14.7118 107.517 16.2294 109.001 18.8856H109.806V15.2172ZM109.808 25.8291C109.808 21.9925 106.757 19.041 102.985 19.041C99.2127 19.041 96.2462 21.9921 96.2462 25.8291C96.2462 29.6661 99.2127 32.6172 102.985 32.6172C106.757 32.6172 109.808 29.6656 109.808 25.8291ZM166.338 29.0906H161.534C161.534 29.0906 160.292 32.5724 155.819 32.5724C152.175 32.5724 149.442 29.6362 149.442 25.8188C149.442 22.0015 152.175 19.0653 155.819 19.0653C160.292 19.0653 161.534 22.5471 161.534 22.5471H166.338C166.338 22.5471 164.433 14.7447 155.819 14.7447C149.649 14.7447 144.803 19.6527 144.803 25.8188C144.803 32.0272 149.648 36.893 155.819 36.893C164.433 36.8926 166.338 29.0906 166.338 29.0906ZM87.8663 25.8372C87.8569 29.8577 85.6469 33.617 82.3534 35.5142C81.714 35.8826 79.8838 36.9161 77.3258 36.8943C72.635 36.8546 69.7037 33.3084 69.2505 32.7414C69.2505 35.8706 69.2505 38.9994 69.2505 42.1285C67.6997 42.1285 66.1493 42.1285 64.5984 42.1285C64.6031 33.1483 64.6083 24.1676 64.613 15.1873C66.1587 15.1873 67.7044 15.1873 69.2501 15.1873C69.2501 16.3737 69.2501 17.5601 69.2501 18.7464C69.6998 18.191 72.6457 14.6725 77.3253 14.6717C79.9438 14.6712 81.8028 15.7743 82.489 16.1901C85.6683 18.1154 87.8757 21.8026 87.8663 25.8372ZM83.2481 25.8095C83.2481 21.9793 80.2017 19.0333 76.4366 19.0333C72.6711 19.0333 69.7097 21.9793 69.7097 25.8095C69.7097 29.6396 72.6711 32.5856 76.4366 32.5856C80.2022 32.5856 83.2481 29.6396 83.2481 25.8095ZM244.86 25.862C244.851 29.8825 242.641 33.6418 239.347 35.5389C238.708 35.9073 236.877 36.9408 234.319 36.9191C229.629 36.8794 226.697 33.3331 226.244 32.7662C226.244 35.8954 226.244 39.0245 226.244 42.1533C224.693 42.1533 223.143 42.1533 221.592 42.1533C221.597 33.173 221.602 24.1924 221.607 15.2121C223.152 15.2121 224.698 15.2121 226.244 15.2121C226.244 16.3985 226.244 17.5848 226.244 18.7712C226.693 18.2158 229.639 14.6973 234.319 14.6964C236.938 14.696 238.796 15.7991 239.482 16.2149C242.662 18.1406 244.869 21.8278 244.86 25.862ZM240.242 25.8346C240.242 22.0045 237.195 19.0585 233.43 19.0585C229.665 19.0585 226.703 22.0045 226.703 25.8346C226.703 29.6648 229.665 32.6108 233.43 32.6108C237.196 32.6108 240.242 29.6648 240.242 25.8346ZM18.2656 15.1784H22.9276V36.3432H18.2656V32.7175H17.4606C15.9771 35.3737 13.2226 36.8913 10.044 36.8913C4.70404 36.8913 0 32.0849 0 25.803C0 19.5212 4.83149 14.6725 10.044 14.6725C13.2226 14.6725 15.9771 16.1901 17.4606 18.8463H18.2656V15.1784ZM18.2686 25.7902C18.2686 21.9537 15.2171 19.0021 11.4451 19.0021C7.67314 19.0021 4.70662 21.9533 4.70662 25.7902C4.70662 29.6268 7.67314 32.5784 11.4451 32.5784C15.2171 32.5779 18.2686 29.6268 18.2686 25.7902Z" fill="#FF5000"/>
</svg>
